<?xml version="1.0" encoding="UTF-8"?>
<svg width="128px" height="128px" viewBox="0 0 128 128" version="1.1" xmlns="http://www.w3.org/2000/svg" xmlns:xlink="http://www.w3.org/1999/xlink">
    <title>拡張2</title>
    <g id="拡張2" stroke="none" stroke-width="1" fill="none" fill-rule="evenodd">
        <g id="コメントマーク" transform="translate(0.000000, 22.000000)" fill="#D70E0E">
            <rect id="Rectangle" x="0" y="0" width="128" height="86" rx="8"></rect>
            <polygon id="Triangle" transform="translate(64.071429, 94.000000) rotate(180.000000) translate(-64.071429, -94.000000) " points="64.0714286 85 80.1428571 103 48 103"></polygon>
        </g>
        <g id="案2" transform="translate(32.000000, 32.000000)">
            <g id="gpp_good_white_48dp" transform="translate(0.000000, 1.000000)">
                <polygon id="Path" points="0 0 67 0 67 67 0 67"></polygon>
                <path d="M29.7686384,5.1505661 L13.168192,11.6514962 C11.0101339,12.5182869 9.57142857,14.6563705 9.57142857,17.0833844 L9.57142857,30.6919981 C9.57142857,45.2829745 19.0060156,58.8915881 31.7053571,62.2142857 C44.4046987,58.8915881 53.8392857,45.2829745 53.8392857,30.6919981 L53.8392857,17.0833844 C53.8392857,14.6852636 52.4005804,12.5182869 50.2425223,11.6803892 L33.6420759,5.17945912 C32.3970424,4.65938471 31.0136719,4.65938471 29.7686384,5.1505661 Z M26.8082254,41.4690955 L20.9427344,35.3437747 C19.8637054,34.2169468 19.8637054,32.3966864 20.9427344,31.2698585 L20.9427344,31.2698585 C22.0217634,30.1430306 23.7648103,30.1430306 24.8438393,31.2698585 L28.7449442,35.3437747 L38.5392076,25.1156447 C39.6182366,23.9888168 41.3612835,23.9888168 42.4403125,25.1156447 L42.4403125,25.1156447 C43.5193415,26.2424726 43.5193415,28.062733 42.4403125,29.1895609 L30.7093304,41.4402025 C29.6579687,42.5959234 27.8872545,42.5959234 26.8082254,41.4690955 Z" id="Shape" fill="#FFFFFF" fill-rule="nonzero"></path>
            </g>
            <path d="M43.5138845,-2.22881574 C44.5021835,-2.22881574 45.3033581,-1.42764108 45.3033581,-0.439342055 L45.3033581,19.8413597 C45.3033581,20.8296587 44.5021835,21.6308334 43.5138845,21.6308334 C42.5255854,21.6308334 41.7244108,20.8296587 41.7244108,19.8413597 L41.7244108,-0.439342055 C41.7244108,-1.42764108 42.5255854,-2.22881574 43.5138845,-2.22881574 Z" id="Rectangle" fill="#FFFFFF" transform="translate(43.513884, 9.701009) rotate(45.000000) translate(-43.513884, -9.701009) "></path>
            <path d="M19.6542353,-2.22881574 C20.6425344,-2.22881574 21.443709,-1.42764108 21.443709,-0.439342055 L21.443709,19.8413597 C21.443709,20.8296587 20.6425344,21.6308334 19.6542353,21.6308334 C18.6659363,21.6308334 17.8647616,20.8296587 17.8647616,19.8413597 L17.8647616,-0.439342055 C17.8647616,-1.42764108 18.6659363,-2.22881574 19.6542353,-2.22881574 Z" id="Rectangle" fill="#FFFFFF" transform="translate(19.654235, 9.701009) rotate(-45.000000) translate(-19.654235, -9.701009) "></path>
        </g>
    </g>
</svg>